<?xml version="1.0" encoding="utf-8"?>
<!-- Generator: Adobe Illustrator 21.1.0, SVG Export Plug-In . SVG Version: 6.00 Build 0)  -->
<svg version="1.1" xmlns="http://www.w3.org/2000/svg" xmlns:xlink="http://www.w3.org/1999/xlink" x="0px" y="0px"
	 viewBox="0 0 24 24" enable-background="new 0 0 24 24" xml:space="preserve">
<g id="color">
	<path fill="#FFB300" d="M23.416,0.918C23.048,0.326,22.499,0,21.87,0c-2.959,0-4.968,1.087-6.132,2
		c-0.167,0.131-0.271,0.327-0.286,0.539c-0.015,0.212,0.061,0.42,0.208,0.573l5.84,6.05c0.143,0.147,0.338,0.229,0.54,0.229
		c0.038,0,0.077-0.003,0.115-0.009c0.241-0.038,0.449-0.19,0.557-0.409C24.083,6.198,24.405,2.51,23.416,0.918z"/>
	<path fill="#FFB300" d="M2.13,0C1.501,0,0.952,0.326,0.584,0.918C-0.405,2.51-0.083,6.198,1.288,8.972
		c0.108,0.219,0.316,0.372,0.557,0.409C1.883,9.387,1.922,9.39,1.96,9.39c0.202,0,0.397-0.082,0.54-0.229l5.84-6.05
		C8.487,2.958,8.563,2.75,8.548,2.538C8.533,2.326,8.43,2.13,8.262,2C7.098,1.087,5.089,0,2.13,0z"/>
	<circle fill="#FFD54F" cx="12" cy="12.5" r="11.5"/>
	<path fill="#E53935" d="M14.583,20.533c-1.057,0-1.917-0.86-1.917-1.917v-0.575c0-0.317,0.258-0.575,0.575-0.575h2.683
		c0.317,0,0.575,0.258,0.575,0.575v0.575C16.5,19.673,15.64,20.533,14.583,20.533z"/>
</g>
<g id="regular_copy">
	<g>
		<path d="M9.25,11.25c-0.414,0-0.75-0.336-0.75-0.75c0-0.551-0.449-1-1-1s-1,0.449-1,1c0,0.414-0.336,0.75-0.75,0.75
			S5,10.914,5,10.5C5,9.122,6.122,8,7.5,8S10,9.122,10,10.5C10,10.914,9.664,11.25,9.25,11.25z"/>
	</g>
	<g>
		<path d="M18.25,11.25c-0.414,0-0.75-0.336-0.75-0.75c0-0.551-0.449-1-1-1s-1,0.449-1,1c0,0.414-0.336,0.75-0.75,0.75
			S14,10.914,14,10.5C14,9.122,15.122,8,16.5,8S19,9.122,19,10.5C19,10.914,18.664,11.25,18.25,11.25z"/>
	</g>
	<g>
		<path d="M16.25,18.5h-8.5C7.336,18.5,7,18.164,7,17.75S7.336,17,7.75,17h8.5c0.414,0,0.75,0.336,0.75,0.75S16.664,18.5,16.25,18.5
			z"/>
	</g>
	<g>
		<path d="M14.5,21c-1.378,0-2.5-1.122-2.5-2.5v-0.75c0-0.414,0.336-0.75,0.75-0.75h3.5c0.414,0,0.75,0.336,0.75,0.75v0.75
			C17,19.878,15.878,21,14.5,21z M13.5,18.5c0,0.551,0.449,1,1,1s1-0.449,1-1H13.5z"/>
	</g>
	<g>
		<path d="M12,15.15c-0.294,0-0.589-0.112-0.813-0.335l-0.849-0.849c-0.331-0.331-0.429-0.823-0.25-1.255
			C10.267,12.279,10.685,12,11.152,12h1.695c0.467,0,0.885,0.279,1.063,0.711c0.179,0.432,0.081,0.924-0.25,1.255l-0.848,0.848
			C12.59,15.038,12.295,15.15,12,15.15z M11.993,13.5L12,13.506l0.007-0.006H11.993z M12.848,13.5h0.01H12.848z"/>
	</g>
	<g>
		<path d="M4.251,16c-0.035,0-0.071-0.002-0.107-0.007l-3.5-0.5c-0.41-0.059-0.695-0.438-0.637-0.849
			c0.059-0.41,0.442-0.695,0.849-0.637l3.5,0.5c0.41,0.059,0.695,0.438,0.637,0.849C4.939,15.73,4.618,16,4.251,16z"/>
	</g>
	<g>
		<path d="M0.749,19c-0.367,0-0.688-0.27-0.742-0.644c-0.059-0.41,0.227-0.79,0.637-0.849l3.5-0.5
			c0.406-0.058,0.79,0.227,0.849,0.637c0.059,0.41-0.227,0.79-0.637,0.849l-3.5,0.5C0.82,18.998,0.784,19,0.749,19z"/>
	</g>
	<g>
		<path d="M19.749,16c-0.367,0-0.688-0.27-0.742-0.644c-0.059-0.41,0.227-0.79,0.637-0.849l3.5-0.5
			c0.405-0.059,0.79,0.227,0.849,0.637c0.059,0.41-0.227,0.79-0.637,0.849l-3.5,0.5C19.82,15.998,19.784,16,19.749,16z"/>
	</g>
	<g>
		<path d="M23.251,19c-0.035,0-0.071-0.002-0.107-0.007l-3.5-0.5c-0.41-0.059-0.695-0.438-0.637-0.849
			c0.059-0.41,0.441-0.694,0.849-0.637l3.5,0.5c0.41,0.059,0.695,0.438,0.637,0.849C23.939,18.73,23.618,19,23.251,19z"/>
	</g>
	<g>
		<path d="M12,24C5.659,24,0.5,18.841,0.5,12.5S5.659,1,12,1s11.5,5.159,11.5,11.5S18.341,24,12,24z M12,2.5
			c-5.514,0-10,4.486-10,10s4.486,10,10,10s10-4.486,10-10S17.514,2.5,12,2.5z"/>
	</g>
	<g>
		<path d="M22.04,9.39c-0.112,0-0.225-0.025-0.332-0.078c-0.372-0.183-0.524-0.633-0.34-1.004c1.215-2.461,1.414-5.568,0.774-6.598
			C22.011,1.5,21.916,1.5,21.87,1.5c-2.531,0-4.229,0.914-5.208,1.68c-0.327,0.255-0.797,0.198-1.053-0.128
			C15.354,2.726,15.411,2.255,15.737,2c1.165-0.912,3.174-2,6.133-2c0.628,0,1.177,0.326,1.545,0.918
			c0.989,1.591,0.667,5.28-0.703,8.054C22.582,9.237,22.316,9.39,22.04,9.39z"/>
	</g>
	<g>
		<path d="M1.96,9.39c-0.276,0-0.542-0.153-0.673-0.418c-1.37-2.774-1.692-6.462-0.703-8.054C0.952,0.326,1.501,0,2.13,0
			c2.959,0,4.968,1.087,6.132,2C8.588,2.255,8.646,2.727,8.39,3.052C8.135,3.378,7.663,3.436,7.337,3.18
			C6.359,2.414,4.662,1.5,2.13,1.5c-0.046,0-0.141,0-0.271,0.21c-0.64,1.03-0.441,4.137,0.774,6.598
			c0.184,0.371,0.031,0.821-0.34,1.004C2.186,9.365,2.072,9.39,1.96,9.39z"/>
	</g>
</g>
</svg>
