<?xml version="1.0" encoding="utf-8"?>
<!-- Generator: Adobe Illustrator 22.1.0, SVG Export Plug-In . SVG Version: 6.00 Build 0)  -->
<svg version="1.1" xmlns="http://www.w3.org/2000/svg" xmlns:xlink="http://www.w3.org/1999/xlink" x="0px" y="0px"
	 viewBox="0 0 24 24" enable-background="new 0 0 24 24" xml:space="preserve">
<g id="color">
	<g>
		<path fill="#E53935" d="M20.047,0.926c-0.179-0.161-0.435-0.201-0.653-0.103c-0.219,0.098-0.36,0.315-0.36,0.555
			c0,1.017-0.457,1.958-1.254,2.581c-0.264,0.207-0.31,0.589-0.104,0.853c0.206,0.264,0.589,0.31,0.853,0.104
			c0.02-0.015,0.035-0.034,0.055-0.05L19.8,6.083c-0.02,0.031-0.035,0.064-0.057,0.094c-0.192,0.275-0.125,0.654,0.151,0.846
			C20,7.097,20.121,7.133,20.242,7.133c0.192,0,0.38-0.091,0.499-0.26C22.042,5.008,21.744,2.451,20.047,0.926z"/>
	</g>
	<g>
		<path fill="#E53935" d="M4.937,1.378c0-0.24-0.141-0.457-0.36-0.555C4.359,0.725,4.102,0.765,3.923,0.926
			C2.227,2.451,1.929,5.008,3.23,6.873c0.118,0.169,0.307,0.26,0.499,0.26c0.12,0,0.241-0.036,0.347-0.109
			c0.275-0.192,0.343-0.571,0.151-0.846C4.206,6.147,4.191,6.114,4.17,6.083l1.216-1.216c0.019,0.016,0.035,0.034,0.055,0.05
			c0.264,0.206,0.647,0.16,0.853-0.104c0.206-0.264,0.16-0.646-0.104-0.853C5.394,3.336,4.937,2.395,4.937,1.378z"/>
	</g>
	<g>
		<path fill="#EF5350" d="M21.9,12.98c0,5.454-4.437,9.9-9.9,9.9c-4.347,0-8.037-2.808-9.369-6.705v-0.009
			c-0.171-0.495-0.306-0.999-0.387-1.521C2.145,14.105,2.1,13.547,2.1,12.98c0-1.935,0.549-3.735,1.512-5.256
			c0.81-1.287,1.899-2.376,3.195-3.168C8.319,3.62,10.092,3.08,12,3.08c0.558,0,1.098,0.045,1.629,0.135
			c0.522,0.081,1.035,0.216,1.53,0.378c0.72,0.243,1.395,0.567,2.025,0.954c1.287,0.792,2.376,1.872,3.186,3.15
			C21.342,9.227,21.9,11.036,21.9,12.98z"/>
	</g>
	<g>
		<path fill="#4E342E" d="M16.695,8.449l0.573-0.573c0.237-0.237,0.237-0.622,0-0.859s-0.622-0.237-0.859,0l-1.62,1.62
			c-0.004,0.004-0.006,0.011-0.01,0.015c-0.016,0.015-0.034,0.026-0.05,0.041C14.423,9,14.255,9.406,14.255,9.838
			c0,0.893,0.727,1.62,1.62,1.62s1.62-0.727,1.62-1.62C17.495,9.246,17.172,8.732,16.695,8.449z"/>
	</g>
	<g>
		<path fill="#4E342E" d="M5.925,14.664h12.15c0.219,0,0.424,0.106,0.55,0.285c0.127,0.178,0.159,0.407,0.087,0.613
			c-0.998,2.843-3.695,4.754-6.712,4.754s-5.715-1.911-6.712-4.754c-0.072-0.207-0.04-0.435,0.087-0.613
			C5.501,14.77,5.706,14.664,5.925,14.664z"/>
	</g>
	<g>
		<path fill="#455A64" d="M8.344,11.139c-1.369,0-2.483-1.114-2.483-2.483c0-0.663,0.258-1.286,0.727-1.756
			C7.057,6.431,7.68,6.173,8.344,6.173c1.369,0,2.483,1.114,2.483,2.483S9.713,11.139,8.344,11.139z"/>
	</g>
</g>
<g id="regular">
	<g>
		<path d="M12,24C5.935,24,1,19.065,1,13S5.935,2,12,2s11,4.935,11,11S18.065,24,12,24z M12,3.5c-5.238,0-9.5,4.262-9.5,9.5
			s4.262,9.5,9.5,9.5s9.5-4.262,9.5-9.5S17.238,3.5,12,3.5z"/>
	</g>
	<g>
		<path d="M20.39,7.875c-0.414,0-0.75-0.331-0.75-0.745c0-0.155,0.048-0.315,0.138-0.442c0.874-1.239,0.959-2.823,0.325-4.126
			c-0.353,1.012-0.994,1.916-1.857,2.574c-0.33,0.254-0.801,0.188-1.051-0.141c-0.252-0.329-0.188-0.8,0.141-1.051
			C18.336,3.18,18.91,2.016,18.91,0.75c0-0.296,0.175-0.564,0.445-0.686c0.269-0.118,0.588-0.07,0.807,0.129
			c2.093,1.888,2.46,5.031,0.862,7.328C20.892,7.733,20.657,7.875,20.39,7.875z"/>
	</g>
	<g>
		<path d="M3.591,7.89c-0.235,0-0.466-0.109-0.612-0.315C1.337,5.264,1.694,2.09,3.809,0.191c0.221-0.197,0.535-0.246,0.807-0.126
			C4.886,0.186,5.06,0.454,5.06,0.75c0,1.271,0.578,2.442,1.587,3.214c0.328,0.252,0.392,0.723,0.14,1.052
			c-0.251,0.327-0.721,0.393-1.052,0.14C4.853,4.48,4.21,3.582,3.86,2.566C3.227,3.872,3.316,5.46,4.201,6.705
			c0.24,0.338,0.161,0.806-0.177,1.046C3.893,7.845,3.74,7.89,3.591,7.89z"/>
	</g>
	<g>
		<path d="M8.25,12C6.458,12,5,10.542,5,8.75c0-0.868,0.338-1.684,0.952-2.298S7.382,5.5,8.25,5.5c1.792,0,3.25,1.458,3.25,3.25
			S10.042,12,8.25,12z M8.25,7C7.783,7,7.344,7.182,7.013,7.513S6.5,8.283,6.5,8.75c0,0.965,0.785,1.75,1.75,1.75S10,9.715,10,8.75
			S9.215,7,8.25,7z"/>
	</g>
	<g>
		<path d="M12,20.98c-2.81,0-5.359-1.436-6.82-3.841c-0.433-0.694-0.746-1.442-0.929-2.218c-0.096-0.402,0.154-0.807,0.558-0.901
			c0.398-0.094,0.807,0.153,0.901,0.558c0.146,0.616,0.397,1.213,0.747,1.775C7.648,18.314,9.719,19.48,12,19.48
			s4.352-1.166,5.539-3.12c0.354-0.569,0.605-1.166,0.751-1.782c0.095-0.404,0.506-0.65,0.901-0.558
			c0.403,0.095,0.653,0.499,0.558,0.901c-0.183,0.775-0.496,1.523-0.933,2.225C17.359,19.545,14.81,20.98,12,20.98z"/>
	</g>
	<g>
		<path d="M19.02,15.5H4.98c-0.414,0-0.75-0.336-0.75-0.75S4.566,14,4.98,14H19.02c0.414,0,0.75,0.336,0.75,0.75
			S19.434,15.5,19.02,15.5z"/>
	</g>
	<g>
		<g>
			<path d="M16,12c-1.103,0-2-0.897-2-2c0-0.534,0.208-1.036,0.586-1.414S15.466,8,16,8c1.103,0,2,0.897,2,2S17.103,12,16,12z
				 M16,9.5c-0.134,0-0.259,0.052-0.354,0.146S15.5,9.866,15.5,10c0,0.275,0.225,0.5,0.5,0.5s0.5-0.225,0.5-0.5S16.275,9.5,16,9.5z"
				/>
		</g>
		<g>
			<path d="M15.189,9.798c-0.192,0-0.384-0.073-0.53-0.22c-0.293-0.293-0.293-0.768,0-1.061l2-2c0.293-0.293,0.768-0.293,1.061,0
				s0.293,0.768,0,1.061l-2,2C15.573,9.725,15.382,9.798,15.189,9.798z"/>
		</g>
	</g>
	<g>
		<path d="M10.02,7.73c-0.192,0-0.384-0.073-0.53-0.22c-0.293-0.293-0.293-0.768,0-1.061l4.04-4.04
			c0.141-0.141,0.331-0.22,0.53-0.22c0.414,0,0.756,0.336,0.756,0.75c0,0.242-0.113,0.457-0.289,0.594L10.55,7.511
			C10.403,7.657,10.212,7.73,10.02,7.73z"/>
	</g>
	<g>
		<path d="M1.96,15.795c-0.414,0-0.75-0.331-0.75-0.745v-0.01c0-0.199,0.079-0.39,0.22-0.53L5.95,9.989
			c0.293-0.293,0.768-0.293,1.061,0s0.293,0.768,0,1.061l-4.487,4.488C2.386,15.695,2.185,15.795,1.96,15.795z"/>
	</g>
</g>
</svg>
